Coordinates
version=1
nRows=28
nColumns=21
inDegrees=yes

Units are S.I. units (second, meters, Newtons, ...)
If the header above contains a line with 'inDegrees', this indicates whether rotational values are in degrees (yes) or radians (no).

endheader
time	sternoclavicular_r2	sternoclavicular_r3	unrotscap_r3	unrotscap_r2	acromioclavicular_r2	acromioclavicular_r3	acromioclavicular_r1	unrothum_r1	unrothum_r3	unrothum_r2	elv_angle	shoulder_elev	shoulder1_r2	shoulder_rot	elbow_flexion	pro_sup	deviation	flexion	wrist_hand_r1	wrist_hand_r3
      3.01507538	    -17.28097104	      7.31940371	     -7.31940371	     17.28097104	     -3.49904511	     28.27805179	     12.71078966	    -12.71078966	    -28.27805179	      3.49904511	    129.27602664	     71.40881117	   -129.27602664	     16.02134709	      0.98587811	      0.00000000	      0.00000000	     -0.00000000	     -0.00000000	      0.00000000
      3.03517588	    -17.33339314	      7.34160724	     -7.34160724	     17.33339314	     -3.50965952	     28.36383372	     12.74934805	    -12.74934805	    -28.36383372	      3.50965952	    129.33746778	     71.62543097	   -129.33746778	     15.82219043	      1.00939893	      0.00000000	      0.00000000	     -0.00000000	     -0.00000000	      0.00000000
      3.05527638	    -17.38718469	      7.36439080	     -7.36439080	     17.38718469	     -3.52055122	     28.45185656	     12.78891371	    -12.78891371	    -28.45185656	      3.52055122	    129.39216538	     71.84770959	   -129.39216538	     15.64168273	      1.01401860	      0.00000000	      0.00000000	     -0.00000000	     -0.00000000	      0.00000000
      3.07537688	    -17.46315624	      7.39656877	     -7.39656877	     17.46315624	     -3.53593391	     28.57617407	     12.84479358	    -12.84479358	    -28.57617407	      3.53593391	    129.34352533	     72.16164089	   -129.34352533	     15.67136147	      0.71730844	      0.00000000	      0.00000000	     -0.00000000	     -0.00000000	      0.00000000
      3.09547739	    -17.48563602	      7.40609014	     -7.40609014	     17.48563602	     -3.54048561	     28.61295930	     12.86132828	    -12.86132828	    -28.61295930	      3.54048561	    129.48860313	     72.25453233	   -129.48860313	     15.49010284	      1.00560917	      0.00000000	      0.00000000	     -0.00000000	     -0.00000000	      0.00000000
      3.11557789	    -17.56281837	      7.43878094	     -7.43878094	     17.56281837	     -3.55611347	     28.73925814	     12.91809875	    -12.91809875	    -28.73925814	      3.55611347	    129.40920234	     72.57346698	   -129.40920234	     15.52637938	      0.65560710	      0.00000000	      0.00000000	     -0.00000000	     -0.00000000	      0.00000000
      3.13567839	    -17.58341381	      7.44750420	     -7.44750420	     17.58341381	     -3.56028362	     28.77295988	     12.93324744	    -12.93324744	    -28.77295988	      3.56028362	    129.57968576	     72.65857189	   -129.57968576	     15.14705387	      1.00283946	      0.00000000	      0.00000000	     -0.00000000	     -0.00000000	      0.00000000
      3.15577889	    -17.66309584	      7.48125375	     -7.48125375	     17.66309584	     -3.57641761	     28.90334913	     12.99185651	    -12.99185651	    -28.90334913	      3.57641761	    129.46630637	     72.98783577	   -129.46630637	     15.19184139	      0.60178938	      0.00000000	      0.00000000	     -0.00000000	     -0.00000000	      0.00000000
      3.17587940	    -17.69172629	      7.49338025	     -7.49338025	     17.69172629	     -3.58221470	     28.95019910	     13.01291525	    -13.01291525	    -28.95019910	      3.58221470	    129.66115087	     73.10614311	   -129.66115087	     14.45200584	      0.94693144	      0.00000000	      0.00000000	     -0.00000000	     -0.00000000	      0.00000000
      3.19597990	    -18.06698010	      7.65232005	     -7.65232005	     18.06698010	     -3.65819596	     29.56425294	     13.28892823	    -13.28892823	    -29.56425294	      3.65819596	    129.57275113	     74.65677521	   -129.57275113	      2.77404133	      0.92171258	      0.00000000	      0.00000000	     -0.00000000	     -0.00000000	      0.00000000
      3.21608040	    -18.20369778	      7.71022721	     -7.71022721	     18.20369778	     -3.68587851	     29.78797358	     13.38948912	    -13.38948912	    -29.78797358	      3.68587851	    129.52337643	     75.22172306	   -129.52337643	     -0.82245356	      0.93014453	      0.00000000	      0.00000000	     -0.00000000	     -0.00000000	      0.00000000
      3.23618090	    -18.35205013	      7.77306227	     -7.77306227	     18.35205013	     -3.71591684	     30.03073282	     13.49860773	    -13.49860773	    -30.03073282	      3.71591684	    129.43722599	     75.83474793	   -129.43722599	     -5.06040214	      0.98775609	      0.00000000	      0.00000000	     -0.00000000	     -0.00000000	      0.00000000
      3.25628141	    -18.73621509	      7.93577641	     -7.93577641	     18.73621509	     -3.79370243	     30.65936860	     13.78117518	    -13.78117518	    -30.65936860	      3.79370243	    128.84016698	     77.42220290	   -128.84016698	    -19.12399497	      1.18012469	      0.00000000	      0.00000000	     -0.00000000	     -0.00000000	      0.00000000
      3.27638191	    -18.77481451	      7.95212530	     -7.95212530	     18.77481451	     -3.80151803	     30.72253150	     13.80956647	    -13.80956647	    -30.72253150	      3.80151803	    128.84219815	     77.58170424	   -128.84219815	    -19.21177284	      1.11818951	      0.00000000	      0.00000000	     -0.00000000	     -0.00000000	      0.00000000
      3.29648241	    -18.81224895	      7.96798076	     -7.96798076	     18.81224895	     -3.80909774	     30.78378807	     13.83710088	    -13.83710088	    -30.78378807	      3.80909774	    128.84580027	     77.73639166	   -128.84580027	    -19.30512525	      1.06019439	      0.00000000	      0.00000000	     -0.00000000	     -0.00000000	      0.00000000
      3.31658291	    -18.84257866	      7.98082700	     -7.98082700	     18.84257866	     -3.81523889	     30.83341868	     13.85940949	    -13.85940949	    -30.83341868	      3.81523889	    128.94727478	     77.86172077	   -128.94727478	    -19.83130138	      1.31236879	      0.00000000	      0.00000000	     -0.00000000	     -0.00000000	      0.00000000
      3.33668342	    -18.88514282	      7.99885517	     -7.99885517	     18.88514282	     -3.82385727	     30.90306937	     13.89071700	    -13.89071700	    -30.90306937	      3.82385727	    128.95543428	     78.03760533	   -128.95543428	    -20.42743986	      1.35023973	      0.00000000	      0.00000000	     -0.00000000	     -0.00000000	      0.00000000
      3.35678392	    -19.29893966	      8.17411998	     -8.17411998	     19.29893966	     -3.90764271	     31.58019384	     14.19507979	    -14.19507979	    -31.58019384	      3.90764271	    127.70312871	     79.74750579	   -127.70312871	    -38.65161445	      1.60019100	      0.00000000	      0.00000000	     -0.00000000	     -0.00000000	      0.00000000
      3.37688442	    -19.39097652	      8.21310245	     -8.21310245	     19.39097652	     -3.92627830	     31.73080015	     14.26277629	    -14.26277629	    -31.73080015	      3.92627830	    127.43830629	     80.12782256	   -127.43830629	    -42.26455938	      1.67973345	      0.00000000	      0.00000000	     -0.00000000	     -0.00000000	      0.00000000
      3.39698492	    -19.48165541	      8.25150975	     -8.25150975	     19.48165541	     -3.94463893	     31.87918431	     14.32947395	    -14.32947395	    -31.87918431	      3.94463893	    127.14929930	     80.50252789	   -127.14929930	    -46.09781425	      1.78123968	      0.00000000	      0.00000000	     -0.00000000	     -0.00000000	      0.00000000
      3.41708543	    -19.56935807	      8.28865645	     -8.28865645	     19.56935807	     -3.96239694	     32.02269825	     14.39398247	    -14.39398247	    -32.02269825	      3.96239694	    126.83299829	     80.86493473	   -126.83299829	    -50.08473344	      1.88784757	      0.00000000	      0.00000000	     -0.00000000	     -0.00000000	      0.00000000
      3.43718593	    -19.65034838	      8.32296013	     -8.32296013	     19.65034838	     -3.97879583	     32.15522832	     14.45355383	    -14.45355383	    -32.15522832	      3.97879583	    126.51059457	     81.19960472	   -126.51059457	    -54.00610000	      2.00244995	      0.00000000	      0.00000000	     -0.00000000	     -0.00000000	      0.00000000
      3.45728643	    -19.72397880	      8.35414650	     -8.35414650	     19.72397880	     -3.99370449	     32.27571488	     14.50771171	    -14.50771171	    -32.27571488	      3.99370449	    126.18696337	     81.50386196	   -126.18696337	    -57.79745832	      2.11405495	      0.00000000	      0.00000000	     -0.00000000	     -0.00000000	      0.00000000
      3.47738693	    -19.78877718	      8.38159203	     -8.38159203	     19.78877718	     -4.00682484	     32.38174897	     14.55537330	    -14.55537330	    -32.38174897	      4.00682484	    125.90061968	     81.77162325	   -125.90061968	    -61.26821909	      2.26185733	      0.00000000	      0.00000000	     -0.00000000	     -0.00000000	      0.00000000
      3.49748744	    -19.84518680	      8.40548449	     -8.40548449	     19.84518680	     -4.01824664	     32.47405594	     14.59686465	    -14.59686465	    -32.47405594	      4.01824664	    125.62162455	     82.00472032	   -125.62162455	    -64.43145179	      2.37462671	      0.00000000	      0.00000000	     -0.00000000	     -0.00000000	      0.00000000
      3.51758794	    -19.89544727	      8.42677245	     -8.42677245	     19.89544727	     -4.02842337	     32.55630064	     14.63383308	    -14.63383308	    -32.55630064	      4.02842337	    125.42628608	     82.21240777	   -125.42628608	    -67.11959311	      2.57378988	      0.00000000	      0.00000000	     -0.00000000	     -0.00000000	      0.00000000
      3.53768844	    -19.94449816	      8.44754809	     -8.44754809	     19.94449816	     -4.03835518	     32.63656601	     14.66991181	    -14.66991181	    -32.63656601	      4.03835518	    125.20127481	     82.41509694	   -125.20127481	    -69.97812344	      2.76304115	      0.00000000	      0.00000000	     -0.00000000	     -0.00000000	      0.00000000
      3.55778894	    -19.97664980	      8.46116601	     -8.46116601	     19.97664980	     -4.04486523	     32.68917796	     14.69356052	    -14.69356052	    -32.68917796	      4.04486523	    125.09198572	     82.54795463	   -125.09198572	    -71.45508923	      2.86170939	      0.00000000	      0.00000000	     -0.00000000	     -0.00000000	      0.00000000
